<svg width="25" height="24" viewBox="0 0 25 24" fill="none" xmlns="http://www.w3.org/2000/svg">
<g id="comment">
<mask id="mask0_42998_18359" style="mask-type:alpha" maskUnits="userSpaceOnUse" x="0" y="0" width="25" height="24">
<rect id="Bounding box" x="0.436523" width="24" height="24" fill="#D9D9D9"/>
</mask>
<g mask="url(#mask0_42998_18359)">
<path id="comment_2" d="M7.43652 14H17.4365C17.7199 14 17.9572 13.904 18.1485 13.712C18.3405 13.5207 18.4365 13.2833 18.4365 13C18.4365 12.7167 18.3405 12.479 18.1485 12.287C17.9572 12.0957 17.7199 12 17.4365 12H7.43652C7.15319 12 6.91552 12.0957 6.72352 12.287C6.53219 12.479 6.43652 12.7167 6.43652 13C6.43652 13.2833 6.53219 13.5207 6.72352 13.712C6.91552 13.904 7.15319 14 7.43652 14ZM7.43652 11H17.4365C17.7199 11 17.9572 10.904 18.1485 10.712C18.3405 10.5207 18.4365 10.2833 18.4365 10C18.4365 9.71667 18.3405 9.479 18.1485 9.287C17.9572 9.09567 17.7199 9 17.4365 9H7.43652C7.15319 9 6.91552 9.09567 6.72352 9.287C6.53219 9.479 6.43652 9.71667 6.43652 10C6.43652 10.2833 6.53219 10.5207 6.72352 10.712C6.91552 10.904 7.15319 11 7.43652 11ZM7.43652 8H17.4365C17.7199 8 17.9572 7.90433 18.1485 7.713C18.3405 7.521 18.4365 7.28333 18.4365 7C18.4365 6.71667 18.3405 6.479 18.1485 6.287C17.9572 6.09567 17.7199 6 17.4365 6H7.43652C7.15319 6 6.91552 6.09567 6.72352 6.287C6.53219 6.479 6.43652 6.71667 6.43652 7C6.43652 7.28333 6.53219 7.521 6.72352 7.713C6.91552 7.90433 7.15319 8 7.43652 8ZM20.7365 20.3L18.4365 18H4.43652C3.88652 18 3.41586 17.8043 3.02452 17.413C2.63252 17.021 2.43652 16.55 2.43652 16V4C2.43652 3.45 2.63252 2.979 3.02452 2.587C3.41586 2.19567 3.88652 2 4.43652 2H20.4365C20.9865 2 21.4575 2.19567 21.8495 2.587C22.2409 2.979 22.4365 3.45 22.4365 4V19.575C22.4365 20.025 22.2325 20.3373 21.8245 20.512C21.4159 20.6873 21.0532 20.6167 20.7365 20.3ZM4.43652 4V16H19.2615L20.4365 17.175V4H4.43652Z" fill="black"/>
</g>
</g>
</svg>
