<svg width="25" height="24" viewBox="0 0 25 24" fill="none" xmlns="http://www.w3.org/2000/svg">
<g id="edit">
<mask id="mask0_50809_6046" style="mask-type:alpha" maskUnits="userSpaceOnUse" x="0" y="0" width="25" height="24">
<rect id="Bounding box" x="0.550049" width="24" height="24" fill="#D9D9D9"/>
</mask>
<g mask="url(#mask0_50809_6046)">
<path id="edit_2" d="M5.55005 19H6.95005L15.575 10.375L14.175 8.975L5.55005 17.6V19ZM19.85 8.925L15.6 4.725L17 3.325C17.3834 2.94167 17.8544 2.75 18.413 2.75C18.971 2.75 19.4417 2.94167 19.825 3.325L21.225 4.725C21.6084 5.10833 21.8084 5.571 21.825 6.113C21.8417 6.65433 21.6584 7.11667 21.275 7.5L19.85 8.925ZM4.55005 21C4.26672 21 4.02938 20.904 3.83805 20.712C3.64605 20.5207 3.55005 20.2833 3.55005 20V17.175C3.55005 17.0417 3.57505 16.9127 3.62505 16.788C3.67505 16.6627 3.75005 16.55 3.85005 16.45L14.15 6.15L18.4 10.4L8.10005 20.7C8.00005 20.8 7.88772 20.875 7.76305 20.925C7.63772 20.975 7.50838 21 7.37505 21H4.55005Z" fill="#1C1B1F"/>
</g>
</g>
</svg>
