<svg width="20" height="21" viewBox="0 0 20 21" fill="none" xmlns="http://www.w3.org/2000/svg">
<g id="tag">
<mask id="mask0_849_13879" style="mask-type:alpha" maskUnits="userSpaceOnUse" x="0" y="0" width="20" height="21">
<rect id="Bounding box" y="0.5" width="20" height="20" fill="#D9D9D9"/>
</mask>
<g mask="url(#mask0_849_13879)">
<path id="tag_2" d="M6.04162 17.1666C5.77773 17.1666 5.56246 17.0624 5.39579 16.8541C5.22912 16.6458 5.18051 16.4166 5.24996 16.1666L5.83329 13.8333H3.97912C3.70135 13.8333 3.47912 13.7258 3.31246 13.5108C3.14579 13.2952 3.09718 13.0555 3.16662 12.7916C3.20829 12.5971 3.30551 12.4444 3.45829 12.3333C3.61107 12.2221 3.78468 12.1666 3.97912 12.1666H6.24996L7.08329 8.83325H4.81246C4.53468 8.83325 4.31246 8.72575 4.14579 8.51075C3.97912 8.2952 3.93051 8.05547 3.99996 7.79158C4.04162 7.59714 4.13885 7.44436 4.29162 7.33325C4.4444 7.22214 4.61801 7.16658 4.81246 7.16658H7.49996L8.18746 4.43742C8.22912 4.25686 8.3194 4.11103 8.45829 3.99992C8.59718 3.88881 8.76385 3.83325 8.95829 3.83325C9.22218 3.83325 9.43746 3.93742 9.60412 4.14575C9.77079 4.35409 9.8194 4.58325 9.74996 4.83325L9.16662 7.16658H12.5L13.1875 4.43742C13.2291 4.25686 13.3194 4.11103 13.4583 3.99992C13.5972 3.88881 13.7638 3.83325 13.9583 3.83325C14.2222 3.83325 14.4375 3.93742 14.6041 4.14575C14.7708 4.35409 14.8194 4.58325 14.75 4.83325L14.1666 7.16658H16.0208C16.2986 7.16658 16.5208 7.27409 16.6875 7.48908C16.8541 7.70464 16.9027 7.94436 16.8333 8.20825C16.7916 8.4027 16.6944 8.55547 16.5416 8.66658C16.3888 8.7777 16.2152 8.83325 16.0208 8.83325H13.75L12.9166 12.1666H15.1875C15.4652 12.1666 15.6875 12.2741 15.8541 12.4891C16.0208 12.7046 16.0694 12.9444 16 13.2083C15.9583 13.4027 15.8611 13.5555 15.7083 13.6666C15.5555 13.7777 15.3819 13.8333 15.1875 13.8333H12.5L11.8125 16.5624C11.7708 16.743 11.6805 16.8888 11.5416 16.9999C11.4027 17.111 11.2361 17.1666 11.0416 17.1666C10.7777 17.1666 10.5625 17.0624 10.3958 16.8541C10.2291 16.6458 10.1805 16.4166 10.25 16.1666L10.8333 13.8333H7.49996L6.81246 16.5624C6.77079 16.743 6.68051 16.8888 6.54162 16.9999C6.40273 17.111 6.23607 17.1666 6.04162 17.1666ZM7.91662 12.1666H11.25L12.0833 8.83325H8.74996L7.91662 12.1666Z" fill="#535AF1"/>
</g>
</g>
</svg>
