<svg width="157" height="24" viewBox="0 0 157 24" fill="none" xmlns="http://www.w3.org/2000/svg">
<g id="Logo name" clip-path="url(#clip0_2104_21344)">
<path id="Vector" d="M8.69458 0.267578H2.25893C1.53054 0.267578 0.968114 0.461201 0.580868 0.848446C0.193623 1.23569 0 1.79812 0 2.52651V21.4093C0 22.1377 0.193623 22.7002 0.580868 23.0874C0.968114 23.4746 1.53054 23.6683 2.25893 23.6683H8.69458C10.6677 23.6683 12.4103 23.4101 13.9224 22.8846C15.4345 22.3682 16.7253 21.603 17.7764 20.6072C18.8275 19.6114 19.6204 18.3851 20.1644 16.9376C20.7084 15.49 20.9758 13.8212 20.9758 11.9403C20.9758 8.17845 19.9063 5.29255 17.7764 3.27334C15.6373 1.27257 12.6131 0.267578 8.69458 0.267578ZM16.0338 15.5546C15.7019 16.5872 15.1948 17.4355 14.5217 18.1085C13.8486 18.7816 13.0096 19.2887 11.9954 19.6391C10.9904 19.9802 9.801 20.1554 8.4272 20.1554H4.24126V3.78045H8.4272C11.1287 3.78045 13.1479 4.45352 14.5033 5.80888C15.8494 7.15502 16.5317 9.20188 16.5317 11.9495C16.5317 13.3233 16.3657 14.5219 16.0338 15.5546Z" fill="black"/>
<path id="Vector_2" d="M35.2026 1.78871C34.9168 1.1433 34.5664 0.69151 34.1607 0.414906C33.755 0.138302 33.294 0 32.7869 0C32.2798 0 31.7819 0.138302 31.3762 0.414906C30.9706 0.69151 30.6202 1.15252 30.3344 1.78871L21.5752 21.2063C21.354 21.7134 21.2802 22.1744 21.3447 22.5801C21.4093 22.9858 21.6029 23.3177 21.9256 23.5574C22.2483 23.7972 22.6724 23.9262 23.2072 23.9262C23.7789 23.9262 24.2214 23.7787 24.5349 23.4929C24.8484 23.2071 25.1434 22.7368 25.4293 22.1007L27.0612 18.2466H38.4757L40.1354 22.1007C40.4027 22.7184 40.707 23.1794 41.0482 23.4745C41.3893 23.7695 41.8687 23.9262 42.4957 23.9262C43.0028 23.9262 43.4177 23.8064 43.722 23.5759C44.0355 23.3454 44.2199 23.0134 44.2844 22.5985C44.349 22.1744 44.266 21.7134 44.017 21.2063L35.2026 1.78871ZM32.7132 4.87745H32.7777L37.0097 14.8721H28.5088L32.7132 4.87745Z" fill="black"/>
<path id="Vector_3" d="M61.0463 11.5894C62.0237 11.2205 62.8258 10.6673 63.4528 9.92051C64.2734 8.94318 64.6791 7.75378 64.6791 6.33388C64.6791 5.07072 64.3748 3.99197 63.7663 3.07917C63.1578 2.1756 62.2818 1.47487 61.1293 0.986203C59.9768 0.497536 58.5846 0.257812 56.9434 0.257812H48.9772C48.2488 0.257812 47.6864 0.451435 47.2991 0.838681C46.9119 1.22593 46.7183 1.78835 46.7183 2.51674V21.3996C46.7183 22.128 46.9119 22.6904 47.2991 23.0776C47.6864 23.4649 48.2488 23.6585 48.9772 23.6585H57.3122C59.8108 23.6585 61.7655 23.0869 63.167 21.9528C64.5684 20.8095 65.2784 19.2052 65.2784 17.1214C65.2784 15.5263 64.8266 14.2355 63.9138 13.2398C63.1946 12.4468 62.2265 11.9028 61.0463 11.5894ZM50.8028 3.48486H56.215C57.6718 3.48486 58.769 3.77068 59.4881 4.33311C60.2073 4.89554 60.5669 5.73457 60.5669 6.84099C60.5669 7.9474 60.2073 8.78643 59.4881 9.34886C58.769 9.91129 57.681 10.1971 56.215 10.1971H50.8028V3.48486ZM60.0967 19.5648C59.3867 20.1549 58.2803 20.4407 56.7774 20.4407H50.8028V13.4057H56.7774C58.2803 13.4057 59.3867 13.6915 60.0967 14.2724C60.8066 14.8441 61.157 15.7292 61.157 16.9278C61.157 18.1264 60.8066 18.9839 60.0967 19.5648Z" fill="black"/>
<path id="Vector_4" d="M81.976 7.17285C81.3121 7.17285 80.805 7.34803 80.4455 7.68918C80.0951 8.03032 79.9107 8.55587 79.9107 9.26582V16.5682C79.9107 17.8313 79.5603 18.8455 78.8504 19.6016C78.1404 20.3669 77.2368 20.7449 76.1304 20.7449C75.1162 20.7449 74.3694 20.4683 73.9084 19.9151C73.4474 19.3619 73.2077 18.5136 73.2077 17.3611V9.26582C73.2077 8.55587 73.0232 8.03032 72.6637 7.68918C72.2949 7.34803 71.7878 7.17285 71.1239 7.17285C70.4601 7.17285 69.9529 7.34803 69.5934 7.68918C69.243 8.03032 69.0586 8.55587 69.0586 9.26582V17.2966C69.0586 18.781 69.2707 20.0165 69.704 21.0123C70.1373 22.008 70.792 22.7549 71.6771 23.2528C72.5622 23.7506 73.6779 23.9996 75.0332 23.9996C76.3886 23.9996 77.4305 23.6769 78.3709 23.0407C79.044 22.5797 79.588 21.9804 80.0121 21.2428V21.8144C80.0121 22.4967 80.1873 23.0223 80.5469 23.3911C80.8972 23.7599 81.3951 23.935 82.0405 23.935C83.3867 23.935 84.069 23.2251 84.069 21.8144V9.26582C84.069 8.55587 83.8846 8.03032 83.525 7.68918C83.1562 7.34803 82.6491 7.17285 81.9852 7.17285H81.976Z" fill="black"/>
<path id="Vector_5" d="M101.486 8.13215C100.426 7.44987 99.1718 7.0995 97.7334 7.0995C96.3873 7.0995 95.1979 7.43143 94.1837 8.09527C93.4553 8.5655 92.9113 9.14637 92.5241 9.83788V2.09297C92.5241 1.41068 92.3397 0.885132 91.9801 0.534768C91.6205 0.184403 91.1042 0 90.4403 0C89.7765 0 89.2694 0.175182 88.9098 0.534768C88.5594 0.885132 88.375 1.41068 88.375 2.09297V21.8056C88.375 22.4879 88.5502 23.0134 88.9098 23.3823C89.2601 23.7511 89.7765 23.9262 90.4403 23.9262C91.1042 23.9262 91.5836 23.7418 91.934 23.3823C92.2843 23.0134 92.4687 22.4879 92.4687 21.8056V21.1141C92.8468 21.8517 93.4 22.4695 94.1468 22.9673C95.1795 23.6496 96.3781 24 97.7519 24C99.1257 24 100.416 23.6589 101.486 22.9673C102.556 22.2851 103.395 21.2985 103.994 20.0261C104.593 18.7537 104.888 17.2509 104.888 15.5267C104.888 13.8025 104.593 12.2812 103.994 11.0273C103.395 9.77334 102.565 8.80523 101.504 8.12294L101.486 8.13215ZM100.177 18.4679C99.8356 19.2516 99.3562 19.8417 98.7292 20.2474C98.1022 20.6531 97.3923 20.8467 96.5717 20.8467C95.3362 20.8467 94.3404 20.3949 93.5844 19.5006C92.8283 18.6062 92.4595 17.2785 92.4595 15.5359C92.4595 14.365 92.6347 13.3876 92.9758 12.5947C93.317 11.811 93.7964 11.2209 94.4234 10.8337C95.0412 10.4464 95.7603 10.2528 96.5809 10.2528C97.8164 10.2528 98.8122 10.6861 99.5682 11.562C100.324 12.438 100.693 13.7564 100.693 15.5267C100.693 16.6977 100.518 17.675 100.177 18.4679Z" fill="black"/>
<path id="Vector_6" d="M121.401 8.13215C120.341 7.44987 119.087 7.0995 117.649 7.0995C116.303 7.0995 115.113 7.43143 114.099 8.09527C113.371 8.5655 112.827 9.14637 112.439 9.83788V2.09297C112.439 1.41068 112.255 0.885132 111.895 0.534768C111.536 0.184403 111.019 0 110.356 0C109.692 0 109.185 0.175182 108.825 0.534768C108.475 0.885132 108.29 1.41068 108.29 2.09297V21.8056C108.29 22.4879 108.465 23.0134 108.825 23.3823C109.175 23.7511 109.692 23.9262 110.356 23.9262C111.019 23.9262 111.499 23.7418 111.849 23.3823C112.2 23.0134 112.384 22.4879 112.384 21.8056V21.1141C112.762 21.8517 113.315 22.4695 114.062 22.9673C115.095 23.6496 116.293 24 117.667 24C119.041 24 120.332 23.6589 121.401 22.9673C122.471 22.2851 123.31 21.2985 123.909 20.0261C124.508 18.7537 124.804 17.2509 124.804 15.5267C124.804 13.8025 124.508 12.2812 123.909 11.0273C123.31 9.77334 122.48 8.80523 121.42 8.12294L121.401 8.13215ZM120.092 18.4679C119.751 19.2516 119.271 19.8417 118.644 20.2474C118.018 20.6531 117.308 20.8467 116.487 20.8467C115.251 20.8467 114.256 20.3949 113.5 19.5006C112.744 18.6062 112.375 17.2785 112.375 15.5359C112.375 14.365 112.55 13.3876 112.891 12.5947C113.232 11.811 113.712 11.2209 114.339 10.8337C114.956 10.4464 115.676 10.2528 116.496 10.2528C117.732 10.2528 118.727 10.6861 119.484 11.562C120.24 12.438 120.608 13.7564 120.608 15.5267C120.608 16.6977 120.433 17.675 120.092 18.4679Z" fill="black"/>
<path id="Vector_7" d="M135.812 20.5148C135.656 20.5332 135.499 20.5517 135.351 20.5609C135.195 20.5701 135.029 20.5793 134.854 20.5793C134.061 20.5793 133.443 20.3396 133.01 19.8509C132.576 19.3623 132.364 18.6154 132.364 17.592V2.09297C132.364 1.41068 132.18 0.885132 131.82 0.534768C131.461 0.184403 130.944 0 130.28 0C129.617 0 129.109 0.175182 128.75 0.534768C128.399 0.885132 128.215 1.41068 128.215 2.09297V17.7949C128.215 19.8325 128.676 21.3723 129.607 22.4234C130.539 23.4745 131.922 24 133.756 24C133.996 24 134.245 23.9908 134.485 23.9631C134.725 23.9447 134.964 23.917 135.186 23.8986C135.693 23.834 136.061 23.6404 136.283 23.3361C136.504 23.0227 136.615 22.5985 136.615 22.0453C136.615 21.3999 136.559 20.9758 136.449 20.7637C136.338 20.5517 136.126 20.4687 135.822 20.5148H135.812Z" fill="black"/>
<path id="Vector_8" d="M151.911 19.5376C151.56 19.5007 151.146 19.6206 150.685 19.888C150.039 20.2384 149.366 20.4873 148.647 20.6348C147.928 20.7823 147.282 20.8469 146.701 20.8469C145.042 20.8469 143.788 20.3951 142.93 19.5007C142.257 18.7908 141.861 17.7858 141.723 16.495H151.745C152.252 16.495 152.648 16.3936 152.925 16.1815C153.202 15.9694 153.34 15.6652 153.34 15.2687C153.34 14.0055 153.165 12.8715 152.824 11.8665C152.482 10.8615 151.985 10.004 151.33 9.29406C150.675 8.58411 149.892 8.04012 148.97 7.67131C148.048 7.29329 147.015 7.10889 145.862 7.10889C144.295 7.10889 142.894 7.46847 141.667 8.18764C140.441 8.90681 139.473 9.89337 138.781 11.1565C138.081 12.4197 137.74 13.8857 137.74 15.573C137.74 17.2603 138.099 18.7908 138.818 20.054C139.537 21.3171 140.561 22.2852 141.889 22.9767C143.216 23.659 144.802 24.0094 146.637 24.0094C147.504 24.0094 148.435 23.8895 149.44 23.659C150.445 23.4285 151.339 23.0689 152.114 22.5803C152.51 22.3405 152.796 22.0455 152.962 21.7136C153.128 21.3817 153.192 21.0589 153.146 20.7362C153.1 20.4135 152.971 20.1462 152.768 19.9249C152.556 19.7036 152.28 19.5745 151.92 19.5468L151.911 19.5376ZM143.659 10.5757C144.313 10.1423 145.106 9.93025 146.028 9.93025C146.867 9.93025 147.568 10.1146 148.14 10.4742C148.702 10.843 149.136 11.3686 149.431 12.0509C149.68 12.6225 149.818 13.314 149.864 14.107H141.723C141.806 13.48 141.944 12.8991 142.165 12.4012C142.506 11.6175 143.004 11.009 143.659 10.5757Z" fill="black"/>
</g>
<defs>
<clipPath id="clip0_2104_21344">
<rect width="156.106" height="24" fill="white"/>
</clipPath>
</defs>
</svg>
