<svg width="89" height="20" viewBox="0 0 89 20" fill="none" xmlns="http://www.w3.org/2000/svg">
<g id="Devspace">
<path id="Vector" d="M84.4517 15.4779C83.3227 15.4779 82.3501 15.2671 81.534 14.8454C80.7179 14.4238 80.0854 13.8253 79.6365 13.05C79.2013 12.2746 78.9836 11.3565 78.9836 10.2955C78.9836 9.2618 79.1945 8.35726 79.6161 7.58194C80.0514 6.80663 80.6431 6.20134 81.3912 5.76607C82.1529 5.31721 83.0166 5.09277 83.9824 5.09277C84.6897 5.09277 85.3222 5.20839 85.8799 5.43962C86.4512 5.67086 86.934 6.00411 87.3285 6.43937C87.7365 6.87464 88.0426 7.40512 88.2466 8.03081C88.4643 8.6429 88.5731 9.33661 88.5731 10.1119C88.5731 10.3568 88.4847 10.5472 88.3078 10.6832C88.1446 10.8056 87.9066 10.8668 87.5937 10.8668H81.0443V9.39782H86.7776L86.4512 9.70386C86.4512 9.07817 86.3559 8.55449 86.1655 8.13283C85.9887 7.71116 85.7234 7.39152 85.3698 7.17388C85.0297 6.94265 84.6013 6.82703 84.0844 6.82703C83.5131 6.82703 83.0234 6.96305 82.6154 7.23509C82.2209 7.49353 81.9149 7.86759 81.6972 8.35726C81.4932 8.83333 81.3912 9.40462 81.3912 10.0711V10.2139C81.3912 11.3293 81.6496 12.1658 82.1665 12.7235C82.697 13.2676 83.4723 13.5396 84.4925 13.5396C84.8461 13.5396 85.2406 13.4988 85.6758 13.4172C86.1247 13.322 86.5464 13.1656 86.9408 12.9479C87.2265 12.7847 87.4781 12.7167 87.6957 12.7439C87.9134 12.7575 88.0834 12.8323 88.2058 12.9683C88.3418 13.1044 88.4235 13.2744 88.4507 13.4784C88.4779 13.6689 88.4371 13.8661 88.3282 14.0701C88.233 14.2741 88.063 14.451 87.8182 14.6006C87.3421 14.8998 86.7912 15.1243 86.1655 15.2739C85.5534 15.4099 84.9821 15.4779 84.4517 15.4779Z" fill="black"/>
<path id="Vector_2" d="M74.7211 15.4779C73.6737 15.4779 72.7624 15.2671 71.987 14.8454C71.2117 14.4102 70.6132 13.7981 70.1916 13.0092C69.7699 12.2202 69.5591 11.2953 69.5591 10.2343C69.5591 9.43182 69.6747 8.71771 69.9059 8.09202C70.1508 7.45272 70.4976 6.91544 70.9465 6.48018C71.3954 6.03131 71.9394 5.69126 72.5787 5.46003C73.218 5.21519 73.9321 5.09277 74.7211 5.09277C75.1699 5.09277 75.6528 5.15398 76.1697 5.2764C76.7001 5.39882 77.1966 5.60285 77.6591 5.88849C77.8767 6.02451 78.0195 6.18774 78.0876 6.37816C78.1556 6.56859 78.1692 6.76582 78.1284 6.96985C78.0876 7.16028 77.9991 7.33031 77.8631 7.47993C77.7407 7.61595 77.5843 7.70436 77.3938 7.74517C77.2034 7.77237 76.9926 7.72477 76.7614 7.60235C76.4621 7.42552 76.1561 7.2963 75.8432 7.21469C75.5304 7.11948 75.2311 7.07187 74.9455 7.07187C74.4966 7.07187 74.1022 7.14668 73.7621 7.2963C73.4221 7.43232 73.1296 7.63635 72.8848 7.90839C72.6535 8.16683 72.4767 8.49328 72.3543 8.88774C72.2319 9.2822 72.1707 9.73787 72.1707 10.2547C72.1707 11.2613 72.4087 12.057 72.8848 12.6419C73.3744 13.2132 74.0614 13.4988 74.9455 13.4988C75.2311 13.4988 75.5236 13.458 75.8228 13.3764C76.1357 13.2948 76.4485 13.1656 76.7614 12.9888C76.9926 12.8663 77.1966 12.8255 77.3735 12.8663C77.5639 12.9071 77.7203 13.0024 77.8427 13.152C77.9651 13.288 78.0399 13.458 78.0671 13.6621C78.0944 13.8525 78.0671 14.0429 77.9855 14.2333C77.9175 14.4238 77.7815 14.5802 77.5775 14.7026C77.1286 14.9746 76.6525 15.1719 76.1493 15.2943C75.646 15.4167 75.1699 15.4779 74.7211 15.4779Z" fill="black"/>
<path id="Vector_3" d="M62.2369 15.4779C61.516 15.4779 60.8699 15.3419 60.2986 15.0699C59.741 14.7842 59.2989 14.4034 58.9724 13.9273C58.6596 13.4512 58.5032 12.9139 58.5032 12.3155C58.5032 11.5809 58.6936 11.0029 59.0745 10.5812C59.4553 10.1459 60.0742 9.83308 60.9311 9.64265C61.7881 9.45222 62.9374 9.35701 64.3793 9.35701H65.3994V10.826H64.3997C63.5563 10.826 62.883 10.8668 62.3798 10.9484C61.8765 11.0301 61.516 11.1729 61.2984 11.3769C61.0944 11.5673 60.9923 11.8394 60.9923 12.193C60.9923 12.6419 61.1488 13.0092 61.4616 13.2948C61.7745 13.5804 62.2097 13.7233 62.7674 13.7233C63.2163 13.7233 63.6107 13.6212 63.9508 13.4172C64.3044 13.1996 64.5833 12.9071 64.7873 12.5399C64.9913 12.1726 65.0934 11.751 65.0934 11.2749V8.92855C65.0934 8.24844 64.9437 7.75877 64.6445 7.45953C64.3452 7.16028 63.842 7.01066 63.1347 7.01066C62.7402 7.01066 62.3117 7.05827 61.8493 7.15348C61.4004 7.24869 60.9243 7.41192 60.4211 7.64315C60.1626 7.76557 59.9314 7.79958 59.7274 7.74517C59.5369 7.69076 59.3873 7.58194 59.2785 7.41872C59.1697 7.24189 59.1153 7.05146 59.1153 6.84743C59.1153 6.6434 59.1697 6.44617 59.2785 6.25575C59.3873 6.05172 59.5709 5.90209 59.8294 5.80688C60.4551 5.54844 61.0536 5.36481 61.6248 5.256C62.2097 5.14718 62.7402 5.09277 63.2163 5.09277C64.1956 5.09277 64.9981 5.2424 65.6238 5.54164C66.2631 5.84088 66.7392 6.29655 67.0521 6.90864C67.3649 7.50713 67.5213 8.28245 67.5213 9.23459V14.1313C67.5213 14.553 67.4193 14.8794 67.2153 15.1107C67.0112 15.3283 66.7188 15.4371 66.3379 15.4371C65.9571 15.4371 65.6578 15.3283 65.4402 15.1107C65.2362 14.8794 65.1342 14.553 65.1342 14.1313V13.152H65.2974C65.2022 13.628 65.0117 14.0429 64.7261 14.3966C64.4541 14.7366 64.1072 15.0019 63.6855 15.1923C63.2639 15.3827 62.781 15.4779 62.2369 15.4779Z" fill="black"/>
<path id="Vector_4" d="M47.9832 19.1097C47.5752 19.1097 47.2623 19.0008 47.0447 18.7832C46.8271 18.5656 46.7183 18.2459 46.7183 17.8243V6.41897C46.7183 5.99731 46.8271 5.67766 47.0447 5.46003C47.2623 5.2424 47.5684 5.13358 47.9628 5.13358C48.3709 5.13358 48.6838 5.2424 48.9014 5.46003C49.119 5.67766 49.2278 5.99731 49.2278 6.41897V8.01041L49.0034 7.39832C49.2074 6.70461 49.6223 6.14693 50.248 5.72527C50.8873 5.3036 51.6286 5.09277 52.4719 5.09277C53.3424 5.09277 54.1042 5.3036 54.7571 5.72527C55.4236 6.14693 55.9404 6.74542 56.3077 7.52074C56.675 8.28245 56.8586 9.20059 56.8586 10.2751C56.8586 11.3361 56.675 12.261 56.3077 13.05C55.9404 13.8253 55.4304 14.4238 54.7775 14.8454C54.1246 15.2671 53.3561 15.4779 52.4719 15.4779C51.6422 15.4779 50.9145 15.2739 50.2888 14.8658C49.6631 14.4442 49.2414 13.9001 49.0238 13.2336H49.2686V17.8243C49.2686 18.2459 49.153 18.5656 48.9218 18.7832C48.7042 19.0008 48.3913 19.1097 47.9832 19.1097ZM51.7578 13.5396C52.2611 13.5396 52.7032 13.4172 53.084 13.1724C53.4649 12.9275 53.7573 12.5671 53.9613 12.091C54.179 11.6013 54.2878 10.9961 54.2878 10.2751C54.2878 9.18698 54.0566 8.37766 53.5941 7.84718C53.1316 7.3031 52.5195 7.03106 51.7578 7.03106C51.2545 7.03106 50.8125 7.15348 50.4316 7.39832C50.0508 7.62955 49.7515 7.99001 49.5339 8.47968C49.3299 8.95575 49.2278 9.55424 49.2278 10.2751C49.2278 11.3497 49.4591 12.1658 49.9215 12.7235C50.384 13.2676 50.9961 13.5396 51.7578 13.5396Z" fill="black"/>
<path id="Vector_5" d="M40.4079 15.4779C39.8231 15.4779 39.2042 15.4167 38.5513 15.2943C37.8984 15.1719 37.3135 14.961 36.7966 14.6618C36.579 14.5258 36.4226 14.3694 36.3273 14.1925C36.2457 14.0021 36.2117 13.8185 36.2253 13.6416C36.2525 13.4512 36.3205 13.288 36.4294 13.152C36.5518 13.016 36.7014 12.9275 36.8782 12.8867C37.0687 12.8459 37.2727 12.8799 37.4903 12.9888C38.0344 13.2472 38.5445 13.4308 39.0205 13.5396C39.4966 13.6348 39.9659 13.6825 40.4284 13.6825C41.0813 13.6825 41.5641 13.5736 41.877 13.356C42.2034 13.1248 42.3666 12.8255 42.3666 12.4583C42.3666 12.1454 42.2578 11.9074 42.0402 11.7442C41.8362 11.5673 41.5233 11.4381 41.1017 11.3565L39.0613 10.9688C38.218 10.8056 37.5719 10.4996 37.1231 10.0507C36.6878 9.58824 36.4702 8.99656 36.4702 8.27565C36.4702 7.62275 36.647 7.05827 37.0006 6.58219C37.3679 6.10612 37.8712 5.73887 38.5105 5.48043C39.1498 5.22199 39.8843 5.09277 40.714 5.09277C41.3125 5.09277 41.8702 5.16078 42.387 5.2968C42.9175 5.41922 43.4276 5.61645 43.9173 5.88849C44.1213 5.99731 44.2573 6.14013 44.3253 6.31696C44.4069 6.49378 44.4274 6.67741 44.3865 6.86784C44.3457 7.04466 44.2641 7.20789 44.1417 7.35751C44.0193 7.49353 43.8629 7.58194 43.6724 7.62275C43.4956 7.64995 43.2916 7.60915 43.0603 7.50033C42.6387 7.2827 42.2306 7.12628 41.8362 7.03106C41.4553 6.93585 41.0881 6.88824 40.7344 6.88824C40.0679 6.88824 39.5714 7.00386 39.245 7.23509C38.9321 7.46633 38.7757 7.77237 38.7757 8.15323C38.7757 8.43887 38.8709 8.67691 39.0613 8.86734C39.2518 9.05777 39.5442 9.18698 39.9387 9.25499L41.979 9.64265C42.8631 9.80588 43.5296 10.1051 43.9785 10.5404C44.441 10.9757 44.6722 11.5605 44.6722 12.295C44.6722 13.288 44.2845 14.0701 43.5092 14.6414C42.7339 15.1991 41.7001 15.4779 40.4079 15.4779Z" fill="black"/>
<path id="Vector_6" d="M30.2352 15.4373C29.8952 15.4373 29.5959 15.3489 29.3375 15.1721C29.0926 14.9953 28.8886 14.7232 28.7254 14.356L25.4813 6.82724C25.3589 6.528 25.3113 6.24916 25.3385 5.99072C25.3793 5.73228 25.5017 5.52825 25.7057 5.37863C25.9234 5.2154 26.2158 5.13379 26.5831 5.13379C26.8959 5.13379 27.1475 5.2086 27.338 5.35822C27.5284 5.49424 27.6984 5.75948 27.8481 6.15394L30.6025 13.0298H29.9904L32.8264 6.13354C32.976 5.75268 33.146 5.49424 33.3365 5.35822C33.5405 5.2086 33.8125 5.13379 34.1526 5.13379C34.4518 5.13379 34.6899 5.2154 34.8667 5.37863C35.0435 5.52825 35.1523 5.73228 35.1931 5.99072C35.234 6.23555 35.1863 6.50759 35.0503 6.80684L31.745 14.356C31.5954 14.7232 31.3914 14.9953 31.1329 15.1721C30.8881 15.3489 30.5889 15.4373 30.2352 15.4373Z" fill="black"/>
<path id="Vector_7" d="M20.2139 15.4779C19.0849 15.4779 18.1124 15.2671 17.2962 14.8454C16.4801 14.4238 15.8476 13.8253 15.3987 13.05C14.9635 12.2746 14.7458 11.3565 14.7458 10.2955C14.7458 9.2618 14.9567 8.35726 15.3783 7.58194C15.8136 6.80663 16.4053 6.20134 17.1534 5.76607C17.9151 5.31721 18.7789 5.09277 19.7446 5.09277C20.4519 5.09277 21.0844 5.20839 21.6421 5.43962C22.2134 5.67086 22.6962 6.00411 23.0907 6.43937C23.4988 6.87464 23.8048 7.40512 24.0088 8.03081C24.2265 8.6429 24.3353 9.33661 24.3353 10.1119C24.3353 10.3568 24.2469 10.5472 24.07 10.6832C23.9068 10.8056 23.6688 10.8668 23.3559 10.8668H16.8066V9.39782H22.5398L22.2134 9.70386C22.2134 9.07817 22.1182 8.55449 21.9277 8.13283C21.7509 7.71116 21.4857 7.39152 21.132 7.17388C20.792 6.94265 20.3635 6.82703 19.8466 6.82703C19.2753 6.82703 18.7857 6.96305 18.3776 7.23509C17.9831 7.49353 17.6771 7.86759 17.4595 8.35726C17.2554 8.83333 17.1534 9.40462 17.1534 10.0711V10.2139C17.1534 11.3293 17.4118 12.1658 17.9287 12.7235C18.4592 13.2676 19.2345 13.5396 20.2547 13.5396C20.6083 13.5396 21.0028 13.4988 21.438 13.4172C21.8869 13.322 22.3086 13.1656 22.703 12.9479C22.9887 12.7847 23.2403 12.7167 23.458 12.7439C23.6756 12.7575 23.8456 12.8323 23.968 12.9683C24.104 13.1044 24.1857 13.2744 24.2129 13.4784C24.2401 13.6689 24.1993 13.8661 24.0904 14.0701C23.9952 14.2741 23.8252 14.451 23.5804 14.6006C23.1043 14.8998 22.5534 15.1243 21.9277 15.2739C21.3156 15.4099 20.7443 15.4779 20.2139 15.4779Z" fill="black"/>
<path id="Vector_8" d="M1.38741 15.2738C0.93854 15.2738 0.591688 15.1582 0.346852 14.9269C0.115617 14.6821 0 14.3353 0 13.8864V2.27706C0 1.82819 0.115617 1.48814 0.346852 1.2569C0.591688 1.01207 0.93854 0.889648 1.38741 0.889648H5.3456C7.75316 0.889648 9.60984 1.50854 10.9156 2.74633C12.235 3.98411 12.8947 5.75918 12.8947 8.07152C12.8947 9.22769 12.7247 10.2546 12.3846 11.1524C12.0582 12.0365 11.5685 12.7846 10.9156 13.3967C10.2763 14.0088 9.48742 14.4781 8.54888 14.8045C7.62394 15.1174 6.55618 15.2738 5.3456 15.2738H1.38741ZM2.61159 13.1111H5.18237C6.0257 13.1111 6.75341 13.0091 7.3655 12.805C7.99119 12.5874 8.50807 12.2745 8.91613 11.8665C9.3378 11.4448 9.65064 10.9211 9.85467 10.2955C10.0587 9.65616 10.1607 8.91485 10.1607 8.07152C10.1607 6.38487 9.74586 5.12668 8.91613 4.29696C8.08641 3.46723 6.84182 3.05237 5.18237 3.05237H2.61159V13.1111Z" fill="black"/>
</g>
</svg>
